<mxfile host="app.diagrams.net" modified="2023-02-27T12:45:34.275Z" agent="5.0 (X11; Linux x86_64) AppleWebKit/537.36 (KHTML, like Gecko) Chrome/89.0.4389.128 Safari/537.36" etag="s5hppwp3v0TDOIpb3gVx" version="20.8.23" type="github">
  <diagram name="Page-1" id="74b105a0-9070-1c63-61bc-23e55f88626e">
    <mxGraphModel dx="1963" dy="1090" grid="1" gridSize="10" guides="1" tooltips="1" connect="1" arrows="0" fold="1" page="1" pageScale="1.5" pageWidth="1169" pageHeight="826" background="none" math="0" shadow="0">
      <root>
        <mxCell id="0" style=";html=1;" />
        <mxCell id="1" style=";html=1;" parent="0" />
        <mxCell id="10b056a9c633e61c-18" style="edgeStyle=orthogonalEdgeStyle;rounded=0;html=1;endArrow=block;endFill=1;jettySize=auto;orthogonalLoop=1;strokeWidth=2;startArrow=none;startFill=0;" parent="1" source="10b056a9c633e61c-1" target="10b056a9c633e61c-2" edge="1">
          <mxGeometry relative="1" as="geometry" />
        </mxCell>
        <mxCell id="10b056a9c633e61c-1" value="Message Translator" style="strokeWidth=2;dashed=0;align=center;fontSize=12;shape=mxgraph.eip.message_translator;fillColor=#c0f5a9;verticalLabelPosition=bottom;verticalAlign=top;" parent="1" vertex="1">
          <mxGeometry x="382" y="590" width="150" height="90" as="geometry" />
        </mxCell>
        <mxCell id="10b056a9c633e61c-19" style="edgeStyle=orthogonalEdgeStyle;rounded=0;html=1;endArrow=block;endFill=1;jettySize=auto;orthogonalLoop=1;strokeWidth=2;startArrow=none;startFill=0;" parent="1" source="10b056a9c633e61c-2" target="10b056a9c633e61c-6" edge="1">
          <mxGeometry relative="1" as="geometry">
            <Array as="points">
              <mxPoint x="852" y="635" />
              <mxPoint x="852" y="440" />
            </Array>
          </mxGeometry>
        </mxCell>
        <mxCell id="10b056a9c633e61c-20" style="edgeStyle=orthogonalEdgeStyle;rounded=0;html=1;endArrow=block;endFill=1;jettySize=auto;orthogonalLoop=1;strokeWidth=2;startArrow=none;startFill=0;" parent="1" source="10b056a9c633e61c-2" target="10b056a9c633e61c-8" edge="1">
          <mxGeometry relative="1" as="geometry" />
        </mxCell>
        <mxCell id="10b056a9c633e61c-21" style="edgeStyle=orthogonalEdgeStyle;rounded=0;html=1;endArrow=block;endFill=1;jettySize=auto;orthogonalLoop=1;strokeWidth=2;startArrow=none;startFill=0;" parent="1" source="10b056a9c633e61c-2" target="10b056a9c633e61c-14" edge="1">
          <mxGeometry relative="1" as="geometry">
            <Array as="points">
              <mxPoint x="852" y="635" />
              <mxPoint x="852" y="885" />
            </Array>
          </mxGeometry>
        </mxCell>
        <mxCell id="10b056a9c633e61c-2" value="Recipient List" style="strokeWidth=2;dashed=0;align=center;fontSize=12;fillColor=#c0f5a9;verticalLabelPosition=bottom;verticalAlign=top;shape=mxgraph.eip.recipient_list;" parent="1" vertex="1">
          <mxGeometry x="632" y="590" width="150" height="90" as="geometry" />
        </mxCell>
        <mxCell id="10b056a9c633e61c-17" style="edgeStyle=orthogonalEdgeStyle;rounded=0;html=1;endArrow=block;endFill=1;jettySize=auto;orthogonalLoop=1;strokeWidth=2;startArrow=none;startFill=0;" parent="1" source="10b056a9c633e61c-4" target="10b056a9c633e61c-1" edge="1">
          <mxGeometry relative="1" as="geometry" />
        </mxCell>
        <mxCell id="10b056a9c633e61c-4" value="终端：应用采集数据－＞sdk" style="strokeWidth=2;dashed=0;align=center;fontSize=12;shape=rect;verticalLabelPosition=bottom;verticalAlign=top;fillColor=#c0f5a9" parent="1" vertex="1">
          <mxGeometry x="186" y="590" width="150" height="90" as="geometry" />
        </mxCell>
        <mxCell id="10b056a9c633e61c-5" value="" style="strokeWidth=1;dashed=0;align=center;fontSize=8;shape=rect;fillColor=#ffffff;strokeColor=#000000;" parent="10b056a9c633e61c-4" vertex="1">
          <mxGeometry x="85" y="25" width="40" height="40" as="geometry" />
        </mxCell>
        <mxCell id="10b056a9c633e61c-22" style="edgeStyle=orthogonalEdgeStyle;rounded=0;html=1;endArrow=block;endFill=1;jettySize=auto;orthogonalLoop=1;strokeWidth=2;startArrow=none;startFill=0;" parent="1" source="10b056a9c633e61c-6" target="10b056a9c633e61c-10" edge="1">
          <mxGeometry relative="1" as="geometry" />
        </mxCell>
        <mxCell id="10b056a9c633e61c-25" style="edgeStyle=orthogonalEdgeStyle;rounded=0;html=1;endArrow=block;endFill=1;jettySize=auto;orthogonalLoop=1;strokeWidth=2;startArrow=none;startFill=0;" parent="1" source="10b056a9c633e61c-6" target="10b056a9c633e61c-12" edge="1">
          <mxGeometry relative="1" as="geometry" />
        </mxCell>
        <mxCell id="10b056a9c633e61c-6" value="Message Endpoint" style="strokeWidth=2;dashed=0;align=center;fontSize=12;shape=rect;verticalLabelPosition=top;verticalAlign=bottom;fillColor=#c0f5a9;labelPosition=center;" parent="1" vertex="1">
          <mxGeometry x="922" y="370" width="150" height="90" as="geometry" />
        </mxCell>
        <mxCell id="10b056a9c633e61c-7" value="" style="strokeWidth=1;dashed=0;align=center;fontSize=8;shape=rect;fillColor=#ffffff;strokeColor=#000000;" parent="10b056a9c633e61c-6" vertex="1">
          <mxGeometry x="85" y="25" width="40" height="40" as="geometry" />
        </mxCell>
        <mxCell id="10b056a9c633e61c-23" style="edgeStyle=orthogonalEdgeStyle;rounded=0;html=1;endArrow=block;endFill=1;jettySize=auto;orthogonalLoop=1;strokeWidth=2;startArrow=none;startFill=0;" parent="1" source="10b056a9c633e61c-8" target="10b056a9c633e61c-11" edge="1">
          <mxGeometry relative="1" as="geometry" />
        </mxCell>
        <mxCell id="10b056a9c633e61c-8" value="Message Endpoint" style="strokeWidth=2;dashed=0;align=center;fontSize=12;shape=rect;verticalLabelPosition=bottom;verticalAlign=top;fillColor=#c0f5a9" parent="1" vertex="1">
          <mxGeometry x="922" y="670" width="150" height="90" as="geometry" />
        </mxCell>
        <mxCell id="10b056a9c633e61c-9" value="" style="strokeWidth=1;dashed=0;align=center;fontSize=8;shape=rect" parent="10b056a9c633e61c-8" vertex="1">
          <mxGeometry x="85" y="25" width="40" height="40" as="geometry" />
        </mxCell>
        <mxCell id="10b056a9c633e61c-10" value="Message Translator" style="strokeWidth=2;dashed=0;align=center;fontSize=12;shape=mxgraph.eip.message_translator;fillColor=#c0f5a9;verticalLabelPosition=bottom;verticalAlign=top;" parent="1" vertex="1">
          <mxGeometry x="1192" y="370" width="150" height="90" as="geometry" />
        </mxCell>
        <mxCell id="10b056a9c633e61c-11" value="Message Translator" style="strokeWidth=2;dashed=0;align=center;fontSize=12;shape=mxgraph.eip.message_translator;fillColor=#c0f5a9;verticalLabelPosition=bottom;verticalAlign=top;" parent="1" vertex="1">
          <mxGeometry x="1192" y="670" width="150" height="90" as="geometry" />
        </mxCell>
        <mxCell id="10b056a9c633e61c-26" style="edgeStyle=orthogonalEdgeStyle;rounded=0;html=1;endArrow=block;endFill=1;jettySize=auto;orthogonalLoop=1;strokeWidth=2;startArrow=none;startFill=0;" parent="1" source="10b056a9c633e61c-12" target="10b056a9c633e61c-13" edge="1">
          <mxGeometry relative="1" as="geometry" />
        </mxCell>
        <mxCell id="10b056a9c633e61c-12" value="Deqad Letter Channel" style="strokeWidth=1;dashed=0;align=center;html=1;fontSize=8;shape=mxgraph.eip.deadLetterChannel;verticalLabelPosition=bottom;labelBackgroundColor=#ffffff;verticalAlign=top;" parent="1" vertex="1">
          <mxGeometry x="947" y="550" width="100" height="20" as="geometry" />
        </mxCell>
        <mxCell id="10b056a9c633e61c-27" style="edgeStyle=orthogonalEdgeStyle;rounded=0;html=1;endArrow=block;endFill=1;jettySize=auto;orthogonalLoop=1;strokeWidth=2;startArrow=none;startFill=0;" parent="1" source="10b056a9c633e61c-13" target="10b056a9c633e61c-15" edge="1">
          <mxGeometry relative="1" as="geometry" />
        </mxCell>
        <mxCell id="10b056a9c633e61c-13" value="Envelope Wrapper" style="strokeWidth=2;dashed=0;align=center;fontSize=12;fillColor=#c0f5a9;verticalLabelPosition=bottom;verticalAlign=top;shape=mxgraph.eip.envelope_wrapper;" parent="1" vertex="1">
          <mxGeometry x="1192" y="515" width="150" height="90" as="geometry" />
        </mxCell>
        <mxCell id="10b056a9c633e61c-24" style="edgeStyle=orthogonalEdgeStyle;rounded=0;html=1;endArrow=block;endFill=1;jettySize=auto;orthogonalLoop=1;strokeWidth=2;startArrow=none;startFill=0;" parent="1" source="10b056a9c633e61c-14" target="10b056a9c633e61c-16" edge="1">
          <mxGeometry relative="1" as="geometry" />
        </mxCell>
        <mxCell id="10b056a9c633e61c-14" value="" style="strokeWidth=2;dashed=0;align=center;fontSize=12;fillColor=#c0f5a9;verticalLabelPosition=bottom;verticalAlign=top;shape=mxgraph.eip.composed_message_processor;" parent="1" vertex="1">
          <mxGeometry x="922" y="840" width="150" height="90" as="geometry" />
        </mxCell>
        <mxCell id="10b056a9c633e61c-15" value="Message Store" style="strokeWidth=2;dashed=0;align=center;fontSize=12;verticalLabelPosition=bottom;verticalAlign=top;shape=mxgraph.eip.message_store;fillColor=#c0f5a9" parent="1" vertex="1">
          <mxGeometry x="1432" y="515" width="150" height="90" as="geometry" />
        </mxCell>
        <mxCell id="10b056a9c633e61c-16" value="Message Translator" style="strokeWidth=2;dashed=0;align=center;fontSize=12;shape=mxgraph.eip.message_translator;fillColor=#c0f5a9;verticalLabelPosition=bottom;verticalAlign=top;" parent="1" vertex="1">
          <mxGeometry x="1192" y="840" width="150" height="90" as="geometry" />
        </mxCell>
        <mxCell id="10b056a9c633e61c-30" value="Title" style="text;strokeColor=none;fillColor=none;html=1;fontSize=24;fontStyle=1;verticalAlign=middle;align=center;" parent="1" vertex="1">
          <mxGeometry x="80" y="40" width="1590" height="40" as="geometry" />
        </mxCell>
        <mxCell id="8BmL1JRRTXiNpXpdPoc--17" value="" style="group" vertex="1" connectable="0" parent="1">
          <mxGeometry x="160" y="1460" width="130" height="540" as="geometry" />
        </mxCell>
        <mxCell id="8BmL1JRRTXiNpXpdPoc--94" value="" style="group" vertex="1" connectable="0" parent="8BmL1JRRTXiNpXpdPoc--17">
          <mxGeometry width="130" height="260" as="geometry" />
        </mxCell>
        <mxCell id="8BmL1JRRTXiNpXpdPoc--5" value="" style="swimlane;startSize=0;" vertex="1" parent="8BmL1JRRTXiNpXpdPoc--94">
          <mxGeometry y="40" width="130" height="220" as="geometry" />
        </mxCell>
        <mxCell id="8BmL1JRRTXiNpXpdPoc--7" value="" style="strokeWidth=2;dashed=0;align=center;fontSize=8;shape=rect;verticalLabelPosition=bottom;verticalAlign=top;fillColor=#dae8fc;strokeColor=#6c8ebf;" vertex="1" parent="8BmL1JRRTXiNpXpdPoc--5">
          <mxGeometry x="15.757857142857143" y="14.35897435897436" width="98.48428571428572" height="35.8974358974359" as="geometry" />
        </mxCell>
        <mxCell id="8BmL1JRRTXiNpXpdPoc--8" value="sdk" style="strokeWidth=1;dashed=0;align=center;fontSize=8;shape=rect;" vertex="1" parent="8BmL1JRRTXiNpXpdPoc--7">
          <mxGeometry x="55.8077619047619" y="9.97150997150997" width="26.262476190476185" height="15.954415954415952" as="geometry" />
        </mxCell>
        <mxCell id="8BmL1JRRTXiNpXpdPoc--11" value="应用采集数据" style="text;html=1;strokeColor=none;fillColor=none;align=center;verticalAlign=middle;whiteSpace=wrap;rounded=0;" vertex="1" parent="8BmL1JRRTXiNpXpdPoc--7">
          <mxGeometry x="3.939371428571428" y="11.965811965811964" width="39.39371428571428" height="11.965811965811964" as="geometry" />
        </mxCell>
        <mxCell id="8BmL1JRRTXiNpXpdPoc--16" value="......" style="text;html=1;align=center;verticalAlign=middle;resizable=0;points=[];autosize=1;strokeColor=none;fillColor=none;" vertex="1" parent="8BmL1JRRTXiNpXpdPoc--5">
          <mxGeometry x="45.00242424242424" y="179.99641025641026" width="40" height="30" as="geometry" />
        </mxCell>
        <mxCell id="8BmL1JRRTXiNpXpdPoc--43" value="" style="strokeWidth=2;dashed=0;align=center;fontSize=8;shape=rect;verticalLabelPosition=bottom;verticalAlign=top;fillColor=#dae8fc;strokeColor=#6c8ebf;" vertex="1" parent="8BmL1JRRTXiNpXpdPoc--5">
          <mxGeometry x="15.757857142857143" y="64.61538461538461" width="98.48428571428572" height="35.8974358974359" as="geometry" />
        </mxCell>
        <mxCell id="8BmL1JRRTXiNpXpdPoc--44" value="sdk" style="strokeWidth=1;dashed=0;align=center;fontSize=8;shape=rect;" vertex="1" parent="8BmL1JRRTXiNpXpdPoc--43">
          <mxGeometry x="55.8077619047619" y="9.97150997150997" width="26.262476190476185" height="15.954415954415952" as="geometry" />
        </mxCell>
        <mxCell id="8BmL1JRRTXiNpXpdPoc--45" value="应用采集数据" style="text;html=1;strokeColor=none;fillColor=none;align=center;verticalAlign=middle;whiteSpace=wrap;rounded=0;" vertex="1" parent="8BmL1JRRTXiNpXpdPoc--43">
          <mxGeometry x="3.939371428571428" y="11.965811965811964" width="39.39371428571428" height="11.965811965811964" as="geometry" />
        </mxCell>
        <mxCell id="8BmL1JRRTXiNpXpdPoc--46" value="" style="strokeWidth=2;dashed=0;align=center;fontSize=8;shape=rect;verticalLabelPosition=bottom;verticalAlign=top;fillColor=#dae8fc;strokeColor=#6c8ebf;" vertex="1" parent="8BmL1JRRTXiNpXpdPoc--5">
          <mxGeometry x="15.757857142857143" y="114.87179487179488" width="98.48428571428572" height="35.8974358974359" as="geometry" />
        </mxCell>
        <mxCell id="8BmL1JRRTXiNpXpdPoc--47" value="sdk" style="strokeWidth=1;dashed=0;align=center;fontSize=8;shape=rect;" vertex="1" parent="8BmL1JRRTXiNpXpdPoc--46">
          <mxGeometry x="55.8077619047619" y="9.97150997150997" width="26.262476190476185" height="15.954415954415952" as="geometry" />
        </mxCell>
        <mxCell id="8BmL1JRRTXiNpXpdPoc--48" value="应用采集数据" style="text;html=1;strokeColor=none;fillColor=none;align=center;verticalAlign=middle;whiteSpace=wrap;rounded=0;" vertex="1" parent="8BmL1JRRTXiNpXpdPoc--46">
          <mxGeometry x="3.939371428571428" y="11.965811965811964" width="39.39371428571428" height="11.965811965811964" as="geometry" />
        </mxCell>
        <mxCell id="8BmL1JRRTXiNpXpdPoc--10" value="终端" style="text;html=1;align=center;verticalAlign=middle;resizable=0;points=[];autosize=1;strokeColor=none;fillColor=none;" vertex="1" parent="8BmL1JRRTXiNpXpdPoc--94">
          <mxGeometry x="41.78871572871573" width="50" height="30" as="geometry" />
        </mxCell>
        <mxCell id="8BmL1JRRTXiNpXpdPoc--23" value="api服务" style="rounded=1;whiteSpace=wrap;html=1;" vertex="1" parent="1">
          <mxGeometry x="370" y="1590" width="120" height="60" as="geometry" />
        </mxCell>
        <mxCell id="8BmL1JRRTXiNpXpdPoc--24" value="" style="shape=flexArrow;endArrow=classic;html=1;rounded=0;" edge="1" parent="1">
          <mxGeometry width="50" height="50" relative="1" as="geometry">
            <mxPoint x="310" y="1690" as="sourcePoint" />
            <mxPoint x="360" y="1640" as="targetPoint" />
          </mxGeometry>
        </mxCell>
        <mxCell id="8BmL1JRRTXiNpXpdPoc--25" value="" style="shape=flexArrow;endArrow=classic;html=1;rounded=0;" edge="1" parent="1">
          <mxGeometry width="50" height="50" relative="1" as="geometry">
            <mxPoint x="310" y="1540" as="sourcePoint" />
            <mxPoint x="360" y="1600" as="targetPoint" />
          </mxGeometry>
        </mxCell>
        <mxCell id="8BmL1JRRTXiNpXpdPoc--28" value="" style="shape=flexArrow;endArrow=classic;html=1;rounded=0;fillColor=#cdeb8b;strokeColor=#36393d;" edge="1" parent="1">
          <mxGeometry width="50" height="50" relative="1" as="geometry">
            <mxPoint x="500" y="1619.58" as="sourcePoint" />
            <mxPoint x="570" y="1620" as="targetPoint" />
          </mxGeometry>
        </mxCell>
        <mxCell id="8BmL1JRRTXiNpXpdPoc--33" value="" style="strokeWidth=2;dashed=0;align=center;fontSize=8;html=1;shape=rect;" vertex="1" parent="1">
          <mxGeometry x="707" y="1850" as="geometry" />
        </mxCell>
        <mxCell id="8BmL1JRRTXiNpXpdPoc--56" value="" style="swimlane;startSize=0;dashed=1;dashPattern=8 8;fontStyle=1;rounded=0;shadow=0;glass=1;" vertex="1" parent="1">
          <mxGeometry x="370" y="1490" width="690" height="240" as="geometry" />
        </mxCell>
        <mxCell id="8BmL1JRRTXiNpXpdPoc--58" value="北京机房" style="text;html=1;align=center;verticalAlign=middle;resizable=0;points=[];autosize=1;strokeColor=none;fillColor=none;fontStyle=1" vertex="1" parent="8BmL1JRRTXiNpXpdPoc--56">
          <mxGeometry x="10" y="40" width="70" height="30" as="geometry" />
        </mxCell>
        <mxCell id="8BmL1JRRTXiNpXpdPoc--80" value="hdfs" style="strokeWidth=2;html=1;shape=mxgraph.flowchart.database;whiteSpace=wrap;rounded=0;shadow=0;glass=1;sketch=0;fillColor=#647687;fontColor=#ffffff;strokeColor=#314354;" vertex="1" parent="8BmL1JRRTXiNpXpdPoc--56">
          <mxGeometry x="590" y="100" width="60" height="60" as="geometry" />
        </mxCell>
        <mxCell id="8BmL1JRRTXiNpXpdPoc--39" value="" style="shape=flexArrow;endArrow=classic;html=1;rounded=0;fillColor=#b1ddf0;strokeColor=#10739e;" edge="1" parent="8BmL1JRRTXiNpXpdPoc--56">
          <mxGeometry width="50" height="50" relative="1" as="geometry">
            <mxPoint x="360" y="129.71000000000004" as="sourcePoint" />
            <mxPoint x="430" y="129.71000000000004" as="targetPoint" />
          </mxGeometry>
        </mxCell>
        <mxCell id="8BmL1JRRTXiNpXpdPoc--92" value="" style="shape=flexArrow;endArrow=classic;html=1;rounded=0;fontSize=16;fillColor=#b1ddf0;strokeColor=#10739e;" edge="1" parent="8BmL1JRRTXiNpXpdPoc--56">
          <mxGeometry width="50" height="50" relative="1" as="geometry">
            <mxPoint x="280" y="210" as="sourcePoint" />
            <mxPoint x="280" y="270" as="targetPoint" />
          </mxGeometry>
        </mxCell>
        <mxCell id="8BmL1JRRTXiNpXpdPoc--93" value="flink" style="shape=step;perimeter=stepPerimeter;whiteSpace=wrap;html=1;fixedSize=1;rounded=0;shadow=0;glass=1;sketch=0;fontSize=16;fillColor=#FFFFFF;" vertex="1" parent="8BmL1JRRTXiNpXpdPoc--56">
          <mxGeometry x="430" y="105" width="83" height="50" as="geometry" />
        </mxCell>
        <mxCell id="8BmL1JRRTXiNpXpdPoc--53" value="" style="shape=flexArrow;endArrow=classic;html=1;rounded=0;" edge="1" parent="8BmL1JRRTXiNpXpdPoc--56">
          <mxGeometry width="50" height="50" relative="1" as="geometry">
            <mxPoint x="520" y="130" as="sourcePoint" />
            <mxPoint x="580" y="129.71000000000004" as="targetPoint" />
          </mxGeometry>
        </mxCell>
        <mxCell id="8BmL1JRRTXiNpXpdPoc--61" value="" style="swimlane;startSize=0;dashed=1;dashPattern=8 8;fontStyle=1;rounded=0;shadow=0;glass=1;" vertex="1" parent="1">
          <mxGeometry x="370" y="1749" width="690" height="110" as="geometry" />
        </mxCell>
        <mxCell id="8BmL1JRRTXiNpXpdPoc--62" value="南京机房" style="text;html=1;align=center;verticalAlign=middle;resizable=0;points=[];autosize=1;strokeColor=none;fillColor=none;fontStyle=1" vertex="1" parent="8BmL1JRRTXiNpXpdPoc--61">
          <mxGeometry x="10" y="20" width="70" height="30" as="geometry" />
        </mxCell>
        <mxCell id="8BmL1JRRTXiNpXpdPoc--71" value="" style="shape=flexArrow;endArrow=classic;html=1;rounded=0;" edge="1" parent="8BmL1JRRTXiNpXpdPoc--61">
          <mxGeometry width="50" height="50" relative="1" as="geometry">
            <mxPoint x="360" y="50" as="sourcePoint" />
            <mxPoint x="560" y="50.42" as="targetPoint" />
          </mxGeometry>
        </mxCell>
        <mxCell id="8BmL1JRRTXiNpXpdPoc--81" value="hdfs" style="strokeWidth=2;html=1;shape=mxgraph.flowchart.database;whiteSpace=wrap;rounded=0;shadow=0;glass=1;sketch=0;fillColor=#647687;fontColor=#ffffff;strokeColor=#314354;" vertex="1" parent="8BmL1JRRTXiNpXpdPoc--61">
          <mxGeometry x="590" y="20" width="60" height="60" as="geometry" />
        </mxCell>
        <mxCell id="8BmL1JRRTXiNpXpdPoc--82" value="文件" style="sketch=0;outlineConnect=0;fontColor=#232F3E;gradientColor=none;fillColor=#000000;strokeColor=none;dashed=0;verticalLabelPosition=bottom;verticalAlign=top;align=center;html=1;fontSize=12;fontStyle=0;aspect=fixed;pointerEvents=1;shape=mxgraph.aws4.file_system;rounded=0;shadow=0;glass=1;" vertex="1" parent="8BmL1JRRTXiNpXpdPoc--61">
          <mxGeometry x="240" y="12" width="78" height="73" as="geometry" />
        </mxCell>
        <mxCell id="8BmL1JRRTXiNpXpdPoc--49" value="" style="group" vertex="1" connectable="0" parent="1">
          <mxGeometry x="580" y="1480" width="140" height="220" as="geometry" />
        </mxCell>
        <mxCell id="8BmL1JRRTXiNpXpdPoc--38" value="" style="swimlane;startSize=0;" vertex="1" parent="8BmL1JRRTXiNpXpdPoc--49">
          <mxGeometry y="30.000000000000004" width="140" height="187.41" as="geometry" />
        </mxCell>
        <mxCell id="8BmL1JRRTXiNpXpdPoc--29" value="" style="strokeWidth=1;outlineConnect=0;dashed=0;align=center;html=1;fontSize=8;shape=mxgraph.eip.dataChannel;verticalLabelPosition=bottom;labelBackgroundColor=#ffffff;verticalAlign=top;" vertex="1" parent="8BmL1JRRTXiNpXpdPoc--38">
          <mxGeometry x="35" y="52.96059829059829" width="100" height="16.296296296296298" as="geometry" />
        </mxCell>
        <mxCell id="8BmL1JRRTXiNpXpdPoc--30" value="" style="strokeWidth=1;outlineConnect=0;dashed=0;align=center;html=1;fontSize=8;shape=mxgraph.eip.dataChannel;verticalLabelPosition=bottom;labelBackgroundColor=#ffffff;verticalAlign=top;" vertex="1" parent="8BmL1JRRTXiNpXpdPoc--38">
          <mxGeometry x="35" y="85.55319088319088" width="100" height="16.296296296296298" as="geometry" />
        </mxCell>
        <mxCell id="8BmL1JRRTXiNpXpdPoc--31" value="" style="strokeWidth=1;outlineConnect=0;dashed=0;align=center;html=1;fontSize=8;shape=mxgraph.eip.dataChannel;verticalLabelPosition=bottom;labelBackgroundColor=#ffffff;verticalAlign=top;" vertex="1" parent="8BmL1JRRTXiNpXpdPoc--38">
          <mxGeometry x="35" y="118.14578347578347" width="100" height="16.296296296296298" as="geometry" />
        </mxCell>
        <mxCell id="8BmL1JRRTXiNpXpdPoc--52" value="&lt;b&gt;&lt;font style=&quot;font-size: 16px;&quot;&gt;......&lt;/font&gt;&lt;/b&gt;" style="text;html=1;align=center;verticalAlign=middle;resizable=0;points=[];autosize=1;strokeColor=none;fillColor=none;" vertex="1" parent="8BmL1JRRTXiNpXpdPoc--38">
          <mxGeometry x="45.00242424242424" y="157.40696252465477" width="50" height="30" as="geometry" />
        </mxCell>
        <mxCell id="8BmL1JRRTXiNpXpdPoc--40" value="kafka" style="text;html=1;align=center;verticalAlign=middle;resizable=0;points=[];autosize=1;strokeColor=none;fillColor=none;" vertex="1" parent="8BmL1JRRTXiNpXpdPoc--38">
          <mxGeometry x="40" y="7.41384615384617" width="50" height="30" as="geometry" />
        </mxCell>
        <mxCell id="8BmL1JRRTXiNpXpdPoc--83" value="Topic" style="text;html=1;align=center;verticalAlign=middle;resizable=0;points=[];autosize=1;strokeColor=none;fillColor=none;" vertex="1" parent="8BmL1JRRTXiNpXpdPoc--38">
          <mxGeometry x="-5" y="46.11000000000013" width="50" height="30" as="geometry" />
        </mxCell>
        <mxCell id="8BmL1JRRTXiNpXpdPoc--84" value="Topic" style="text;html=1;align=center;verticalAlign=middle;resizable=0;points=[];autosize=1;strokeColor=none;fillColor=none;" vertex="1" parent="8BmL1JRRTXiNpXpdPoc--38">
          <mxGeometry x="-5" y="78.70000000000005" width="50" height="30" as="geometry" />
        </mxCell>
        <mxCell id="8BmL1JRRTXiNpXpdPoc--86" value="Topic" style="text;html=1;align=center;verticalAlign=middle;resizable=0;points=[];autosize=1;strokeColor=none;fillColor=none;" vertex="1" parent="8BmL1JRRTXiNpXpdPoc--38">
          <mxGeometry x="-5" y="111.28999999999996" width="50" height="30" as="geometry" />
        </mxCell>
        <mxCell id="8BmL1JRRTXiNpXpdPoc--95" value="Server contents" style="points=[[0,0],[0.25,0],[0.5,0],[0.75,0],[1,0],[1,0.25],[1,0.5],[1,0.75],[1,1],[0.75,1],[0.5,1],[0.25,1],[0,1],[0,0.75],[0,0.5],[0,0.25]];outlineConnect=0;gradientColor=none;html=1;whiteSpace=wrap;fontSize=12;fontStyle=0;container=1;pointerEvents=0;collapsible=0;recursiveResize=0;shape=mxgraph.aws4.group;grIcon=mxgraph.aws4.group_on_premise;strokeColor=#5A6C86;fillColor=none;verticalAlign=top;align=left;spacingLeft=30;fontColor=#5A6C86;dashed=0;rounded=0;shadow=0;glass=1;sketch=0;" vertex="1" parent="1">
          <mxGeometry x="80" y="2520" width="850" height="430" as="geometry" />
        </mxCell>
        <mxCell id="8BmL1JRRTXiNpXpdPoc--97" value="PEC005109" style="swimlane;fontStyle=0;childLayout=stackLayout;horizontal=1;startSize=30;horizontalStack=0;resizeParent=1;resizeParentMax=0;resizeLast=0;collapsible=1;marginBottom=0;whiteSpace=wrap;html=1;rounded=0;shadow=0;glass=1;sketch=0;fontSize=16;fillColor=#FFFFFF;" vertex="1" parent="8BmL1JRRTXiNpXpdPoc--95">
          <mxGeometry x="10" y="30" width="360" height="150" as="geometry">
            <mxRectangle x="21" y="40" width="110" height="30" as="alternateBounds" />
          </mxGeometry>
        </mxCell>
        <mxCell id="8BmL1JRRTXiNpXpdPoc--98" value="cpu: Xeon(R) E5-2678 12cores * 2(48processor)" style="text;strokeColor=none;fillColor=none;align=left;verticalAlign=middle;spacingLeft=4;spacingRight=4;overflow=hidden;points=[[0,0.5],[1,0.5]];portConstraint=eastwest;rotatable=0;whiteSpace=wrap;html=1;fontSize=16;" vertex="1" parent="8BmL1JRRTXiNpXpdPoc--97">
          <mxGeometry y="30" width="360" height="30" as="geometry" />
        </mxCell>
        <mxCell id="8BmL1JRRTXiNpXpdPoc--99" value="memory: 32G * 16" style="text;strokeColor=none;fillColor=none;align=left;verticalAlign=middle;spacingLeft=4;spacingRight=4;overflow=hidden;points=[[0,0.5],[1,0.5]];portConstraint=eastwest;rotatable=0;whiteSpace=wrap;html=1;fontSize=16;" vertex="1" parent="8BmL1JRRTXiNpXpdPoc--97">
          <mxGeometry y="60" width="360" height="30" as="geometry" />
        </mxCell>
        <mxCell id="8BmL1JRRTXiNpXpdPoc--100" value="hard disk: 6T * 8 (2 raid1=6T, 6 raid5=30T)" style="text;strokeColor=none;fillColor=none;align=left;verticalAlign=middle;spacingLeft=4;spacingRight=4;overflow=hidden;points=[[0,0.5],[1,0.5]];portConstraint=eastwest;rotatable=0;whiteSpace=wrap;html=1;fontSize=16;" vertex="1" parent="8BmL1JRRTXiNpXpdPoc--97">
          <mxGeometry y="90" width="360" height="30" as="geometry" />
        </mxCell>
        <mxCell id="8BmL1JRRTXiNpXpdPoc--103" value="net adapter：4(10.4.10.20-21/10.4.10.22-28)" style="text;strokeColor=none;fillColor=none;align=left;verticalAlign=middle;spacingLeft=4;spacingRight=4;overflow=hidden;points=[[0,0.5],[1,0.5]];portConstraint=eastwest;rotatable=0;whiteSpace=wrap;html=1;fontSize=16;" vertex="1" parent="8BmL1JRRTXiNpXpdPoc--97">
          <mxGeometry y="120" width="360" height="30" as="geometry" />
        </mxCell>
        <mxCell id="8BmL1JRRTXiNpXpdPoc--148" value="hdfs" style="swimlane;whiteSpace=wrap;html=1;rounded=0;shadow=0;glass=1;dashed=1;labelBackgroundColor=none;labelBorderColor=none;sketch=0;strokeColor=#82b366;fontSize=16;fillColor=#d5e8d4;gradientColor=#97d077;" vertex="1" parent="8BmL1JRRTXiNpXpdPoc--95">
          <mxGeometry x="370" y="10" width="470" height="200" as="geometry" />
        </mxCell>
        <mxCell id="8BmL1JRRTXiNpXpdPoc--109" value="node-11" style="swimlane;fontStyle=0;childLayout=stackLayout;horizontal=1;startSize=30;horizontalStack=0;resizeParent=1;resizeParentMax=0;resizeLast=0;collapsible=1;marginBottom=0;whiteSpace=wrap;html=1;rounded=0;shadow=0;glass=1;sketch=0;fontSize=16;fillColor=#FFFFFF;" vertex="1" parent="8BmL1JRRTXiNpXpdPoc--148">
          <mxGeometry x="166" y="42" width="129" height="150" as="geometry">
            <mxRectangle x="21" y="40" width="110" height="30" as="alternateBounds" />
          </mxGeometry>
        </mxCell>
        <mxCell id="8BmL1JRRTXiNpXpdPoc--110" value="cpu: 6cores&amp;nbsp;" style="text;strokeColor=none;fillColor=none;align=left;verticalAlign=middle;spacingLeft=4;spacingRight=4;overflow=hidden;points=[[0,0.5],[1,0.5]];portConstraint=eastwest;rotatable=0;whiteSpace=wrap;html=1;fontSize=16;" vertex="1" parent="8BmL1JRRTXiNpXpdPoc--109">
          <mxGeometry y="30" width="129" height="30" as="geometry" />
        </mxCell>
        <mxCell id="8BmL1JRRTXiNpXpdPoc--111" value="memory: 48G&amp;nbsp;" style="text;strokeColor=none;fillColor=none;align=left;verticalAlign=middle;spacingLeft=4;spacingRight=4;overflow=hidden;points=[[0,0.5],[1,0.5]];portConstraint=eastwest;rotatable=0;whiteSpace=wrap;html=1;fontSize=16;" vertex="1" parent="8BmL1JRRTXiNpXpdPoc--109">
          <mxGeometry y="60" width="129" height="30" as="geometry" />
        </mxCell>
        <mxCell id="8BmL1JRRTXiNpXpdPoc--112" value="hard disk: 7T" style="text;strokeColor=none;fillColor=none;align=left;verticalAlign=middle;spacingLeft=4;spacingRight=4;overflow=hidden;points=[[0,0.5],[1,0.5]];portConstraint=eastwest;rotatable=0;whiteSpace=wrap;html=1;fontSize=16;" vertex="1" parent="8BmL1JRRTXiNpXpdPoc--109">
          <mxGeometry y="90" width="129" height="30" as="geometry" />
        </mxCell>
        <mxCell id="8BmL1JRRTXiNpXpdPoc--113" value="ip：10.4.10.23" style="text;strokeColor=none;fillColor=none;align=left;verticalAlign=middle;spacingLeft=4;spacingRight=4;overflow=hidden;points=[[0,0.5],[1,0.5]];portConstraint=eastwest;rotatable=0;whiteSpace=wrap;html=1;fontSize=16;" vertex="1" parent="8BmL1JRRTXiNpXpdPoc--109">
          <mxGeometry y="120" width="129" height="30" as="geometry" />
        </mxCell>
        <mxCell id="8BmL1JRRTXiNpXpdPoc--114" value="node-12" style="swimlane;fontStyle=0;childLayout=stackLayout;horizontal=1;startSize=30;horizontalStack=0;resizeParent=1;resizeParentMax=0;resizeLast=0;collapsible=1;marginBottom=0;whiteSpace=wrap;html=1;rounded=0;shadow=0;glass=1;sketch=0;fontSize=16;fillColor=#FFFFFF;" vertex="1" parent="8BmL1JRRTXiNpXpdPoc--148">
          <mxGeometry x="317" y="42" width="129" height="150" as="geometry">
            <mxRectangle x="21" y="40" width="110" height="30" as="alternateBounds" />
          </mxGeometry>
        </mxCell>
        <mxCell id="8BmL1JRRTXiNpXpdPoc--115" value="cpu: 6cores&amp;nbsp;" style="text;strokeColor=none;fillColor=none;align=left;verticalAlign=middle;spacingLeft=4;spacingRight=4;overflow=hidden;points=[[0,0.5],[1,0.5]];portConstraint=eastwest;rotatable=0;whiteSpace=wrap;html=1;fontSize=16;" vertex="1" parent="8BmL1JRRTXiNpXpdPoc--114">
          <mxGeometry y="30" width="129" height="30" as="geometry" />
        </mxCell>
        <mxCell id="8BmL1JRRTXiNpXpdPoc--116" value="memory: 48G&amp;nbsp;" style="text;strokeColor=none;fillColor=none;align=left;verticalAlign=middle;spacingLeft=4;spacingRight=4;overflow=hidden;points=[[0,0.5],[1,0.5]];portConstraint=eastwest;rotatable=0;whiteSpace=wrap;html=1;fontSize=16;" vertex="1" parent="8BmL1JRRTXiNpXpdPoc--114">
          <mxGeometry y="60" width="129" height="30" as="geometry" />
        </mxCell>
        <mxCell id="8BmL1JRRTXiNpXpdPoc--117" value="hard disk: 7T" style="text;strokeColor=none;fillColor=none;align=left;verticalAlign=middle;spacingLeft=4;spacingRight=4;overflow=hidden;points=[[0,0.5],[1,0.5]];portConstraint=eastwest;rotatable=0;whiteSpace=wrap;html=1;fontSize=16;" vertex="1" parent="8BmL1JRRTXiNpXpdPoc--114">
          <mxGeometry y="90" width="129" height="30" as="geometry" />
        </mxCell>
        <mxCell id="8BmL1JRRTXiNpXpdPoc--118" value="ip：10.4.10.24" style="text;strokeColor=none;fillColor=none;align=left;verticalAlign=middle;spacingLeft=4;spacingRight=4;overflow=hidden;points=[[0,0.5],[1,0.5]];portConstraint=eastwest;rotatable=0;whiteSpace=wrap;html=1;fontSize=16;" vertex="1" parent="8BmL1JRRTXiNpXpdPoc--114">
          <mxGeometry y="120" width="129" height="30" as="geometry" />
        </mxCell>
        <mxCell id="8BmL1JRRTXiNpXpdPoc--104" value="node-10" style="swimlane;fontStyle=0;childLayout=stackLayout;horizontal=1;startSize=30;horizontalStack=0;resizeParent=1;resizeParentMax=0;resizeLast=0;collapsible=1;marginBottom=0;whiteSpace=wrap;html=1;rounded=0;shadow=0;glass=1;sketch=0;fontSize=16;fillColor=#FFFFFF;" vertex="1" parent="8BmL1JRRTXiNpXpdPoc--148">
          <mxGeometry x="16" y="42" width="129" height="150" as="geometry">
            <mxRectangle x="21" y="40" width="110" height="30" as="alternateBounds" />
          </mxGeometry>
        </mxCell>
        <mxCell id="8BmL1JRRTXiNpXpdPoc--105" value="cpu: 6cores&amp;nbsp;" style="text;strokeColor=none;fillColor=none;align=left;verticalAlign=middle;spacingLeft=4;spacingRight=4;overflow=hidden;points=[[0,0.5],[1,0.5]];portConstraint=eastwest;rotatable=0;whiteSpace=wrap;html=1;fontSize=16;" vertex="1" parent="8BmL1JRRTXiNpXpdPoc--104">
          <mxGeometry y="30" width="129" height="30" as="geometry" />
        </mxCell>
        <mxCell id="8BmL1JRRTXiNpXpdPoc--106" value="memory: 48G&amp;nbsp;" style="text;strokeColor=none;fillColor=none;align=left;verticalAlign=middle;spacingLeft=4;spacingRight=4;overflow=hidden;points=[[0,0.5],[1,0.5]];portConstraint=eastwest;rotatable=0;whiteSpace=wrap;html=1;fontSize=16;" vertex="1" parent="8BmL1JRRTXiNpXpdPoc--104">
          <mxGeometry y="60" width="129" height="30" as="geometry" />
        </mxCell>
        <mxCell id="8BmL1JRRTXiNpXpdPoc--107" value="hard disk: 7T" style="text;strokeColor=none;fillColor=none;align=left;verticalAlign=middle;spacingLeft=4;spacingRight=4;overflow=hidden;points=[[0,0.5],[1,0.5]];portConstraint=eastwest;rotatable=0;whiteSpace=wrap;html=1;fontSize=16;" vertex="1" parent="8BmL1JRRTXiNpXpdPoc--104">
          <mxGeometry y="90" width="129" height="30" as="geometry" />
        </mxCell>
        <mxCell id="8BmL1JRRTXiNpXpdPoc--108" value="ip：10.4.10.22" style="text;strokeColor=none;fillColor=none;align=left;verticalAlign=middle;spacingLeft=4;spacingRight=4;overflow=hidden;points=[[0,0.5],[1,0.5]];portConstraint=eastwest;rotatable=0;whiteSpace=wrap;html=1;fontSize=16;" vertex="1" parent="8BmL1JRRTXiNpXpdPoc--104">
          <mxGeometry y="120" width="129" height="30" as="geometry" />
        </mxCell>
        <mxCell id="8BmL1JRRTXiNpXpdPoc--150" value="日志中转/AzkabanWeb..." style="swimlane;whiteSpace=wrap;html=1;rounded=0;shadow=0;glass=1;dashed=1;labelBackgroundColor=none;labelBorderColor=none;sketch=0;strokeColor=#23445d;fontSize=16;fillColor=#bac8d3;" vertex="1" parent="8BmL1JRRTXiNpXpdPoc--95">
          <mxGeometry x="19" y="210" width="200" height="200" as="geometry" />
        </mxCell>
        <mxCell id="8BmL1JRRTXiNpXpdPoc--122" value="log-01" style="swimlane;fontStyle=0;childLayout=stackLayout;horizontal=1;startSize=30;horizontalStack=0;resizeParent=1;resizeParentMax=0;resizeLast=0;collapsible=1;marginBottom=0;whiteSpace=wrap;html=1;rounded=0;shadow=0;glass=1;sketch=0;fontSize=16;fillColor=#FFFFFF;" vertex="1" parent="8BmL1JRRTXiNpXpdPoc--150">
          <mxGeometry x="29.83" y="40" width="129" height="150" as="geometry">
            <mxRectangle x="21" y="40" width="110" height="30" as="alternateBounds" />
          </mxGeometry>
        </mxCell>
        <mxCell id="8BmL1JRRTXiNpXpdPoc--123" value="cpu: 8cores&amp;nbsp;" style="text;strokeColor=none;fillColor=none;align=left;verticalAlign=middle;spacingLeft=4;spacingRight=4;overflow=hidden;points=[[0,0.5],[1,0.5]];portConstraint=eastwest;rotatable=0;whiteSpace=wrap;html=1;fontSize=16;" vertex="1" parent="8BmL1JRRTXiNpXpdPoc--122">
          <mxGeometry y="30" width="129" height="30" as="geometry" />
        </mxCell>
        <mxCell id="8BmL1JRRTXiNpXpdPoc--124" value="memory: 64G&amp;nbsp;" style="text;strokeColor=none;fillColor=none;align=left;verticalAlign=middle;spacingLeft=4;spacingRight=4;overflow=hidden;points=[[0,0.5],[1,0.5]];portConstraint=eastwest;rotatable=0;whiteSpace=wrap;html=1;fontSize=16;" vertex="1" parent="8BmL1JRRTXiNpXpdPoc--122">
          <mxGeometry y="60" width="129" height="30" as="geometry" />
        </mxCell>
        <mxCell id="8BmL1JRRTXiNpXpdPoc--125" value="hard disk: 3T" style="text;strokeColor=none;fillColor=none;align=left;verticalAlign=middle;spacingLeft=4;spacingRight=4;overflow=hidden;points=[[0,0.5],[1,0.5]];portConstraint=eastwest;rotatable=0;whiteSpace=wrap;html=1;fontSize=16;" vertex="1" parent="8BmL1JRRTXiNpXpdPoc--122">
          <mxGeometry y="90" width="129" height="30" as="geometry" />
        </mxCell>
        <mxCell id="8BmL1JRRTXiNpXpdPoc--126" value="ip：10.4.10.25" style="text;strokeColor=none;fillColor=none;align=left;verticalAlign=middle;spacingLeft=4;spacingRight=4;overflow=hidden;points=[[0,0.5],[1,0.5]];portConstraint=eastwest;rotatable=0;whiteSpace=wrap;html=1;fontSize=16;" vertex="1" parent="8BmL1JRRTXiNpXpdPoc--122">
          <mxGeometry y="120" width="129" height="30" as="geometry" />
        </mxCell>
        <mxCell id="8BmL1JRRTXiNpXpdPoc--151" value="presto" style="swimlane;whiteSpace=wrap;html=1;rounded=0;shadow=0;glass=1;dashed=1;labelBackgroundColor=none;labelBorderColor=none;sketch=0;strokeColor=#10739e;fontSize=16;fillColor=#b1ddf0;" vertex="1" parent="8BmL1JRRTXiNpXpdPoc--95">
          <mxGeometry x="240" y="210" width="160" height="200" as="geometry" />
        </mxCell>
        <mxCell id="8BmL1JRRTXiNpXpdPoc--131" value="presto-01" style="swimlane;fontStyle=0;childLayout=stackLayout;horizontal=1;startSize=30;horizontalStack=0;resizeParent=1;resizeParentMax=0;resizeLast=0;collapsible=1;marginBottom=0;whiteSpace=wrap;html=1;rounded=0;shadow=0;glass=1;sketch=0;fontSize=16;fillColor=#FFFFFF;" vertex="1" parent="8BmL1JRRTXiNpXpdPoc--151">
          <mxGeometry x="15.5" y="40" width="129" height="150" as="geometry">
            <mxRectangle x="21" y="40" width="110" height="30" as="alternateBounds" />
          </mxGeometry>
        </mxCell>
        <mxCell id="8BmL1JRRTXiNpXpdPoc--132" value="cpu: 8cores&amp;nbsp;" style="text;strokeColor=none;fillColor=none;align=left;verticalAlign=middle;spacingLeft=4;spacingRight=4;overflow=hidden;points=[[0,0.5],[1,0.5]];portConstraint=eastwest;rotatable=0;whiteSpace=wrap;html=1;fontSize=16;" vertex="1" parent="8BmL1JRRTXiNpXpdPoc--131">
          <mxGeometry y="30" width="129" height="30" as="geometry" />
        </mxCell>
        <mxCell id="8BmL1JRRTXiNpXpdPoc--133" value="memory: 6G&amp;nbsp;" style="text;strokeColor=none;fillColor=none;align=left;verticalAlign=middle;spacingLeft=4;spacingRight=4;overflow=hidden;points=[[0,0.5],[1,0.5]];portConstraint=eastwest;rotatable=0;whiteSpace=wrap;html=1;fontSize=16;" vertex="1" parent="8BmL1JRRTXiNpXpdPoc--131">
          <mxGeometry y="60" width="129" height="30" as="geometry" />
        </mxCell>
        <mxCell id="8BmL1JRRTXiNpXpdPoc--134" value="hard disk: 500G" style="text;strokeColor=none;fillColor=none;align=left;verticalAlign=middle;spacingLeft=4;spacingRight=4;overflow=hidden;points=[[0,0.5],[1,0.5]];portConstraint=eastwest;rotatable=0;whiteSpace=wrap;html=1;fontSize=16;" vertex="1" parent="8BmL1JRRTXiNpXpdPoc--131">
          <mxGeometry y="90" width="129" height="30" as="geometry" />
        </mxCell>
        <mxCell id="8BmL1JRRTXiNpXpdPoc--135" value="ip：10.4.10.26" style="text;strokeColor=none;fillColor=none;align=left;verticalAlign=middle;spacingLeft=4;spacingRight=4;overflow=hidden;points=[[0,0.5],[1,0.5]];portConstraint=eastwest;rotatable=0;whiteSpace=wrap;html=1;fontSize=16;" vertex="1" parent="8BmL1JRRTXiNpXpdPoc--131">
          <mxGeometry y="120" width="129" height="30" as="geometry" />
        </mxCell>
        <mxCell id="8BmL1JRRTXiNpXpdPoc--152" value="zookeeper/..." style="swimlane;whiteSpace=wrap;html=1;rounded=0;shadow=0;glass=1;dashed=1;labelBackgroundColor=none;labelBorderColor=none;sketch=0;strokeColor=#b46504;fontSize=16;fillColor=#fad7ac;" vertex="1" parent="8BmL1JRRTXiNpXpdPoc--95">
          <mxGeometry x="425" y="210" width="360" height="200" as="geometry" />
        </mxCell>
        <mxCell id="8BmL1JRRTXiNpXpdPoc--138" value="zk-01" style="swimlane;fontStyle=0;childLayout=stackLayout;horizontal=1;startSize=30;horizontalStack=0;resizeParent=1;resizeParentMax=0;resizeLast=0;collapsible=1;marginBottom=0;whiteSpace=wrap;html=1;rounded=0;shadow=0;glass=1;sketch=0;fontSize=16;fillColor=#FFFFFF;" vertex="1" parent="8BmL1JRRTXiNpXpdPoc--152">
          <mxGeometry x="30" y="40" width="129" height="150" as="geometry">
            <mxRectangle x="21" y="40" width="110" height="30" as="alternateBounds" />
          </mxGeometry>
        </mxCell>
        <mxCell id="8BmL1JRRTXiNpXpdPoc--139" value="cpu: 2cores&amp;nbsp;" style="text;strokeColor=none;fillColor=none;align=left;verticalAlign=middle;spacingLeft=4;spacingRight=4;overflow=hidden;points=[[0,0.5],[1,0.5]];portConstraint=eastwest;rotatable=0;whiteSpace=wrap;html=1;fontSize=16;" vertex="1" parent="8BmL1JRRTXiNpXpdPoc--138">
          <mxGeometry y="30" width="129" height="30" as="geometry" />
        </mxCell>
        <mxCell id="8BmL1JRRTXiNpXpdPoc--140" value="memory: 4G&amp;nbsp;" style="text;strokeColor=none;fillColor=none;align=left;verticalAlign=middle;spacingLeft=4;spacingRight=4;overflow=hidden;points=[[0,0.5],[1,0.5]];portConstraint=eastwest;rotatable=0;whiteSpace=wrap;html=1;fontSize=16;" vertex="1" parent="8BmL1JRRTXiNpXpdPoc--138">
          <mxGeometry y="60" width="129" height="30" as="geometry" />
        </mxCell>
        <mxCell id="8BmL1JRRTXiNpXpdPoc--141" value="hard disk: 500G" style="text;strokeColor=none;fillColor=none;align=left;verticalAlign=middle;spacingLeft=4;spacingRight=4;overflow=hidden;points=[[0,0.5],[1,0.5]];portConstraint=eastwest;rotatable=0;whiteSpace=wrap;html=1;fontSize=16;" vertex="1" parent="8BmL1JRRTXiNpXpdPoc--138">
          <mxGeometry y="90" width="129" height="30" as="geometry" />
        </mxCell>
        <mxCell id="8BmL1JRRTXiNpXpdPoc--142" value="ip：10.4.10.27" style="text;strokeColor=none;fillColor=none;align=left;verticalAlign=middle;spacingLeft=4;spacingRight=4;overflow=hidden;points=[[0,0.5],[1,0.5]];portConstraint=eastwest;rotatable=0;whiteSpace=wrap;html=1;fontSize=16;" vertex="1" parent="8BmL1JRRTXiNpXpdPoc--138">
          <mxGeometry y="120" width="129" height="30" as="geometry" />
        </mxCell>
        <mxCell id="8BmL1JRRTXiNpXpdPoc--143" value="zk-02" style="swimlane;fontStyle=0;childLayout=stackLayout;horizontal=1;startSize=30;horizontalStack=0;resizeParent=1;resizeParentMax=0;resizeLast=0;collapsible=1;marginBottom=0;whiteSpace=wrap;html=1;rounded=0;shadow=0;glass=1;sketch=0;fontSize=16;fillColor=#FFFFFF;" vertex="1" parent="8BmL1JRRTXiNpXpdPoc--152">
          <mxGeometry x="190" y="40" width="129" height="150" as="geometry">
            <mxRectangle x="21" y="40" width="110" height="30" as="alternateBounds" />
          </mxGeometry>
        </mxCell>
        <mxCell id="8BmL1JRRTXiNpXpdPoc--144" value="cpu: 2cores&amp;nbsp;" style="text;strokeColor=none;fillColor=none;align=left;verticalAlign=middle;spacingLeft=4;spacingRight=4;overflow=hidden;points=[[0,0.5],[1,0.5]];portConstraint=eastwest;rotatable=0;whiteSpace=wrap;html=1;fontSize=16;" vertex="1" parent="8BmL1JRRTXiNpXpdPoc--143">
          <mxGeometry y="30" width="129" height="30" as="geometry" />
        </mxCell>
        <mxCell id="8BmL1JRRTXiNpXpdPoc--145" value="memory: 4G&amp;nbsp;" style="text;strokeColor=none;fillColor=none;align=left;verticalAlign=middle;spacingLeft=4;spacingRight=4;overflow=hidden;points=[[0,0.5],[1,0.5]];portConstraint=eastwest;rotatable=0;whiteSpace=wrap;html=1;fontSize=16;" vertex="1" parent="8BmL1JRRTXiNpXpdPoc--143">
          <mxGeometry y="60" width="129" height="30" as="geometry" />
        </mxCell>
        <mxCell id="8BmL1JRRTXiNpXpdPoc--146" value="hard disk: 500G" style="text;strokeColor=none;fillColor=none;align=left;verticalAlign=middle;spacingLeft=4;spacingRight=4;overflow=hidden;points=[[0,0.5],[1,0.5]];portConstraint=eastwest;rotatable=0;whiteSpace=wrap;html=1;fontSize=16;" vertex="1" parent="8BmL1JRRTXiNpXpdPoc--143">
          <mxGeometry y="90" width="129" height="30" as="geometry" />
        </mxCell>
        <mxCell id="8BmL1JRRTXiNpXpdPoc--147" value="ip：10.4.10.28" style="text;strokeColor=none;fillColor=none;align=left;verticalAlign=middle;spacingLeft=4;spacingRight=4;overflow=hidden;points=[[0,0.5],[1,0.5]];portConstraint=eastwest;rotatable=0;whiteSpace=wrap;html=1;fontSize=16;" vertex="1" parent="8BmL1JRRTXiNpXpdPoc--143">
          <mxGeometry y="120" width="129" height="30" as="geometry" />
        </mxCell>
        <mxCell id="8BmL1JRRTXiNpXpdPoc--153" value="Server contents" style="points=[[0,0],[0.25,0],[0.5,0],[0.75,0],[1,0],[1,0.25],[1,0.5],[1,0.75],[1,1],[0.75,1],[0.5,1],[0.25,1],[0,1],[0,0.75],[0,0.5],[0,0.25]];outlineConnect=0;gradientColor=none;html=1;whiteSpace=wrap;fontSize=12;fontStyle=0;container=1;pointerEvents=0;collapsible=0;recursiveResize=0;shape=mxgraph.aws4.group;grIcon=mxgraph.aws4.group_on_premise;strokeColor=#5A6C86;fillColor=none;verticalAlign=top;align=left;spacingLeft=30;fontColor=#5A6C86;dashed=0;rounded=0;shadow=0;glass=1;sketch=0;" vertex="1" parent="1">
          <mxGeometry x="80" y="2970" width="670" height="430" as="geometry" />
        </mxCell>
        <mxCell id="8BmL1JRRTXiNpXpdPoc--154" value="PEC005161" style="swimlane;fontStyle=0;childLayout=stackLayout;horizontal=1;startSize=30;horizontalStack=0;resizeParent=1;resizeParentMax=0;resizeLast=0;collapsible=1;marginBottom=0;whiteSpace=wrap;html=1;rounded=0;shadow=0;glass=1;sketch=0;fontSize=16;fillColor=#FFFFFF;" vertex="1" parent="8BmL1JRRTXiNpXpdPoc--153">
          <mxGeometry x="10" y="30" width="360" height="150" as="geometry">
            <mxRectangle x="21" y="40" width="110" height="30" as="alternateBounds" />
          </mxGeometry>
        </mxCell>
        <mxCell id="8BmL1JRRTXiNpXpdPoc--155" value="cpu: Xeon(R)Gold5218R 20cores(40processor)" style="text;strokeColor=none;fillColor=none;align=left;verticalAlign=middle;spacingLeft=4;spacingRight=4;overflow=hidden;points=[[0,0.5],[1,0.5]];portConstraint=eastwest;rotatable=0;whiteSpace=wrap;html=1;fontSize=16;" vertex="1" parent="8BmL1JRRTXiNpXpdPoc--154">
          <mxGeometry y="30" width="360" height="30" as="geometry" />
        </mxCell>
        <mxCell id="8BmL1JRRTXiNpXpdPoc--156" value="memory: 32G * 8" style="text;strokeColor=none;fillColor=none;align=left;verticalAlign=middle;spacingLeft=4;spacingRight=4;overflow=hidden;points=[[0,0.5],[1,0.5]];portConstraint=eastwest;rotatable=0;whiteSpace=wrap;html=1;fontSize=16;" vertex="1" parent="8BmL1JRRTXiNpXpdPoc--154">
          <mxGeometry y="60" width="360" height="30" as="geometry" />
        </mxCell>
        <mxCell id="8BmL1JRRTXiNpXpdPoc--157" value="hard disk: 8T * 8 (2 raid1=8T, 6 raid5=40T)" style="text;strokeColor=none;fillColor=none;align=left;verticalAlign=middle;spacingLeft=4;spacingRight=4;overflow=hidden;points=[[0,0.5],[1,0.5]];portConstraint=eastwest;rotatable=0;whiteSpace=wrap;html=1;fontSize=16;" vertex="1" parent="8BmL1JRRTXiNpXpdPoc--154">
          <mxGeometry y="90" width="360" height="30" as="geometry" />
        </mxCell>
        <mxCell id="8BmL1JRRTXiNpXpdPoc--158" value="net adapter：4(10.4.10.50-51/10.4.10.52-56)" style="text;strokeColor=none;fillColor=none;align=left;verticalAlign=middle;spacingLeft=4;spacingRight=4;overflow=hidden;points=[[0,0.5],[1,0.5]];portConstraint=eastwest;rotatable=0;whiteSpace=wrap;html=1;fontSize=16;" vertex="1" parent="8BmL1JRRTXiNpXpdPoc--154">
          <mxGeometry y="120" width="360" height="30" as="geometry" />
        </mxCell>
        <mxCell id="8BmL1JRRTXiNpXpdPoc--159" value="hdfs" style="swimlane;whiteSpace=wrap;html=1;rounded=0;shadow=0;glass=1;dashed=1;labelBackgroundColor=none;labelBorderColor=none;sketch=0;strokeColor=#82b366;fontSize=16;fillColor=#d5e8d4;gradientColor=#97d077;" vertex="1" parent="8BmL1JRRTXiNpXpdPoc--153">
          <mxGeometry x="10" y="220" width="470" height="200" as="geometry" />
        </mxCell>
        <mxCell id="8BmL1JRRTXiNpXpdPoc--160" value="node-14" style="swimlane;fontStyle=0;childLayout=stackLayout;horizontal=1;startSize=30;horizontalStack=0;resizeParent=1;resizeParentMax=0;resizeLast=0;collapsible=1;marginBottom=0;whiteSpace=wrap;html=1;rounded=0;shadow=0;glass=1;sketch=0;fontSize=16;fillColor=#FFFFFF;" vertex="1" parent="8BmL1JRRTXiNpXpdPoc--159">
          <mxGeometry x="166" y="42" width="129" height="150" as="geometry">
            <mxRectangle x="21" y="40" width="110" height="30" as="alternateBounds" />
          </mxGeometry>
        </mxCell>
        <mxCell id="8BmL1JRRTXiNpXpdPoc--161" value="cpu: 6cores&amp;nbsp;" style="text;strokeColor=none;fillColor=none;align=left;verticalAlign=middle;spacingLeft=4;spacingRight=4;overflow=hidden;points=[[0,0.5],[1,0.5]];portConstraint=eastwest;rotatable=0;whiteSpace=wrap;html=1;fontSize=16;" vertex="1" parent="8BmL1JRRTXiNpXpdPoc--160">
          <mxGeometry y="30" width="129" height="30" as="geometry" />
        </mxCell>
        <mxCell id="8BmL1JRRTXiNpXpdPoc--162" value="memory: 32G" style="text;strokeColor=none;fillColor=none;align=left;verticalAlign=middle;spacingLeft=4;spacingRight=4;overflow=hidden;points=[[0,0.5],[1,0.5]];portConstraint=eastwest;rotatable=0;whiteSpace=wrap;html=1;fontSize=16;" vertex="1" parent="8BmL1JRRTXiNpXpdPoc--160">
          <mxGeometry y="60" width="129" height="30" as="geometry" />
        </mxCell>
        <mxCell id="8BmL1JRRTXiNpXpdPoc--163" value="hard disk: 8T" style="text;strokeColor=none;fillColor=none;align=left;verticalAlign=middle;spacingLeft=4;spacingRight=4;overflow=hidden;points=[[0,0.5],[1,0.5]];portConstraint=eastwest;rotatable=0;whiteSpace=wrap;html=1;fontSize=16;" vertex="1" parent="8BmL1JRRTXiNpXpdPoc--160">
          <mxGeometry y="90" width="129" height="30" as="geometry" />
        </mxCell>
        <mxCell id="8BmL1JRRTXiNpXpdPoc--164" value="ip：10.4.10.53" style="text;strokeColor=none;fillColor=none;align=left;verticalAlign=middle;spacingLeft=4;spacingRight=4;overflow=hidden;points=[[0,0.5],[1,0.5]];portConstraint=eastwest;rotatable=0;whiteSpace=wrap;html=1;fontSize=16;" vertex="1" parent="8BmL1JRRTXiNpXpdPoc--160">
          <mxGeometry y="120" width="129" height="30" as="geometry" />
        </mxCell>
        <mxCell id="8BmL1JRRTXiNpXpdPoc--165" value="node-15" style="swimlane;fontStyle=0;childLayout=stackLayout;horizontal=1;startSize=30;horizontalStack=0;resizeParent=1;resizeParentMax=0;resizeLast=0;collapsible=1;marginBottom=0;whiteSpace=wrap;html=1;rounded=0;shadow=0;glass=1;sketch=0;fontSize=16;fillColor=#FFFFFF;" vertex="1" parent="8BmL1JRRTXiNpXpdPoc--159">
          <mxGeometry x="317" y="42" width="129" height="150" as="geometry">
            <mxRectangle x="21" y="40" width="110" height="30" as="alternateBounds" />
          </mxGeometry>
        </mxCell>
        <mxCell id="8BmL1JRRTXiNpXpdPoc--166" value="cpu: 6cores&amp;nbsp;" style="text;strokeColor=none;fillColor=none;align=left;verticalAlign=middle;spacingLeft=4;spacingRight=4;overflow=hidden;points=[[0,0.5],[1,0.5]];portConstraint=eastwest;rotatable=0;whiteSpace=wrap;html=1;fontSize=16;" vertex="1" parent="8BmL1JRRTXiNpXpdPoc--165">
          <mxGeometry y="30" width="129" height="30" as="geometry" />
        </mxCell>
        <mxCell id="8BmL1JRRTXiNpXpdPoc--167" value="memory: 32G&amp;nbsp;" style="text;strokeColor=none;fillColor=none;align=left;verticalAlign=middle;spacingLeft=4;spacingRight=4;overflow=hidden;points=[[0,0.5],[1,0.5]];portConstraint=eastwest;rotatable=0;whiteSpace=wrap;html=1;fontSize=16;" vertex="1" parent="8BmL1JRRTXiNpXpdPoc--165">
          <mxGeometry y="60" width="129" height="30" as="geometry" />
        </mxCell>
        <mxCell id="8BmL1JRRTXiNpXpdPoc--168" value="hard disk: 8T" style="text;strokeColor=none;fillColor=none;align=left;verticalAlign=middle;spacingLeft=4;spacingRight=4;overflow=hidden;points=[[0,0.5],[1,0.5]];portConstraint=eastwest;rotatable=0;whiteSpace=wrap;html=1;fontSize=16;" vertex="1" parent="8BmL1JRRTXiNpXpdPoc--165">
          <mxGeometry y="90" width="129" height="30" as="geometry" />
        </mxCell>
        <mxCell id="8BmL1JRRTXiNpXpdPoc--169" value="ip：10.4.10.54" style="text;strokeColor=none;fillColor=none;align=left;verticalAlign=middle;spacingLeft=4;spacingRight=4;overflow=hidden;points=[[0,0.5],[1,0.5]];portConstraint=eastwest;rotatable=0;whiteSpace=wrap;html=1;fontSize=16;" vertex="1" parent="8BmL1JRRTXiNpXpdPoc--165">
          <mxGeometry y="120" width="129" height="30" as="geometry" />
        </mxCell>
        <mxCell id="8BmL1JRRTXiNpXpdPoc--170" value="node-13" style="swimlane;fontStyle=0;childLayout=stackLayout;horizontal=1;startSize=30;horizontalStack=0;resizeParent=1;resizeParentMax=0;resizeLast=0;collapsible=1;marginBottom=0;whiteSpace=wrap;html=1;rounded=0;shadow=0;glass=1;sketch=0;fontSize=16;fillColor=#FFFFFF;" vertex="1" parent="8BmL1JRRTXiNpXpdPoc--159">
          <mxGeometry x="16" y="42" width="129" height="150" as="geometry">
            <mxRectangle x="21" y="40" width="110" height="30" as="alternateBounds" />
          </mxGeometry>
        </mxCell>
        <mxCell id="8BmL1JRRTXiNpXpdPoc--171" value="cpu: 6cores&amp;nbsp;" style="text;strokeColor=none;fillColor=none;align=left;verticalAlign=middle;spacingLeft=4;spacingRight=4;overflow=hidden;points=[[0,0.5],[1,0.5]];portConstraint=eastwest;rotatable=0;whiteSpace=wrap;html=1;fontSize=16;" vertex="1" parent="8BmL1JRRTXiNpXpdPoc--170">
          <mxGeometry y="30" width="129" height="30" as="geometry" />
        </mxCell>
        <mxCell id="8BmL1JRRTXiNpXpdPoc--172" value="memory: 32G&amp;nbsp;" style="text;strokeColor=none;fillColor=none;align=left;verticalAlign=middle;spacingLeft=4;spacingRight=4;overflow=hidden;points=[[0,0.5],[1,0.5]];portConstraint=eastwest;rotatable=0;whiteSpace=wrap;html=1;fontSize=16;" vertex="1" parent="8BmL1JRRTXiNpXpdPoc--170">
          <mxGeometry y="60" width="129" height="30" as="geometry" />
        </mxCell>
        <mxCell id="8BmL1JRRTXiNpXpdPoc--173" value="hard disk: 8T" style="text;strokeColor=none;fillColor=none;align=left;verticalAlign=middle;spacingLeft=4;spacingRight=4;overflow=hidden;points=[[0,0.5],[1,0.5]];portConstraint=eastwest;rotatable=0;whiteSpace=wrap;html=1;fontSize=16;" vertex="1" parent="8BmL1JRRTXiNpXpdPoc--170">
          <mxGeometry y="90" width="129" height="30" as="geometry" />
        </mxCell>
        <mxCell id="8BmL1JRRTXiNpXpdPoc--174" value="ip：10.4.10.52" style="text;strokeColor=none;fillColor=none;align=left;verticalAlign=middle;spacingLeft=4;spacingRight=4;overflow=hidden;points=[[0,0.5],[1,0.5]];portConstraint=eastwest;rotatable=0;whiteSpace=wrap;html=1;fontSize=16;" vertex="1" parent="8BmL1JRRTXiNpXpdPoc--170">
          <mxGeometry y="120" width="129" height="30" as="geometry" />
        </mxCell>
        <mxCell id="8BmL1JRRTXiNpXpdPoc--175" value="mysql" style="swimlane;whiteSpace=wrap;html=1;rounded=0;shadow=0;glass=1;dashed=1;labelBackgroundColor=none;labelBorderColor=none;sketch=0;strokeColor=#6c8ebf;fontSize=16;fillColor=#dae8fc;gradientColor=#7ea6e0;" vertex="1" parent="8BmL1JRRTXiNpXpdPoc--153">
          <mxGeometry x="403" y="10" width="170" height="200" as="geometry" />
        </mxCell>
        <mxCell id="8BmL1JRRTXiNpXpdPoc--176" value="debserver-01" style="swimlane;fontStyle=0;childLayout=stackLayout;horizontal=1;startSize=30;horizontalStack=0;resizeParent=1;resizeParentMax=0;resizeLast=0;collapsible=1;marginBottom=0;whiteSpace=wrap;html=1;rounded=0;shadow=0;glass=1;sketch=0;fontSize=16;fillColor=#FFFFFF;" vertex="1" parent="8BmL1JRRTXiNpXpdPoc--175">
          <mxGeometry x="23" y="40" width="129" height="150" as="geometry">
            <mxRectangle x="21" y="40" width="110" height="30" as="alternateBounds" />
          </mxGeometry>
        </mxCell>
        <mxCell id="8BmL1JRRTXiNpXpdPoc--177" value="cpu: 8cores&amp;nbsp;" style="text;strokeColor=none;fillColor=none;align=left;verticalAlign=middle;spacingLeft=4;spacingRight=4;overflow=hidden;points=[[0,0.5],[1,0.5]];portConstraint=eastwest;rotatable=0;whiteSpace=wrap;html=1;fontSize=16;" vertex="1" parent="8BmL1JRRTXiNpXpdPoc--176">
          <mxGeometry y="30" width="129" height="30" as="geometry" />
        </mxCell>
        <mxCell id="8BmL1JRRTXiNpXpdPoc--178" value="memory: 64G&amp;nbsp;" style="text;strokeColor=none;fillColor=none;align=left;verticalAlign=middle;spacingLeft=4;spacingRight=4;overflow=hidden;points=[[0,0.5],[1,0.5]];portConstraint=eastwest;rotatable=0;whiteSpace=wrap;html=1;fontSize=16;" vertex="1" parent="8BmL1JRRTXiNpXpdPoc--176">
          <mxGeometry y="60" width="129" height="30" as="geometry" />
        </mxCell>
        <mxCell id="8BmL1JRRTXiNpXpdPoc--179" value="hard disk: 5T" style="text;strokeColor=none;fillColor=none;align=left;verticalAlign=middle;spacingLeft=4;spacingRight=4;overflow=hidden;points=[[0,0.5],[1,0.5]];portConstraint=eastwest;rotatable=0;whiteSpace=wrap;html=1;fontSize=16;" vertex="1" parent="8BmL1JRRTXiNpXpdPoc--176">
          <mxGeometry y="90" width="129" height="30" as="geometry" />
        </mxCell>
        <mxCell id="8BmL1JRRTXiNpXpdPoc--180" value="ip：10.4.10.55" style="text;strokeColor=none;fillColor=none;align=left;verticalAlign=middle;spacingLeft=4;spacingRight=4;overflow=hidden;points=[[0,0.5],[1,0.5]];portConstraint=eastwest;rotatable=0;whiteSpace=wrap;html=1;fontSize=16;" vertex="1" parent="8BmL1JRRTXiNpXpdPoc--176">
          <mxGeometry y="120" width="129" height="30" as="geometry" />
        </mxCell>
        <mxCell id="8BmL1JRRTXiNpXpdPoc--181" value="flink" style="swimlane;whiteSpace=wrap;html=1;rounded=0;shadow=0;glass=1;dashed=1;labelBackgroundColor=none;labelBorderColor=none;sketch=0;strokeColor=#d6b656;fontSize=16;fillColor=#fff2cc;gradientColor=#ffd966;" vertex="1" parent="8BmL1JRRTXiNpXpdPoc--153">
          <mxGeometry x="490" y="220" width="160" height="200" as="geometry" />
        </mxCell>
        <mxCell id="8BmL1JRRTXiNpXpdPoc--182" value="presto-01" style="swimlane;fontStyle=0;childLayout=stackLayout;horizontal=1;startSize=30;horizontalStack=0;resizeParent=1;resizeParentMax=0;resizeLast=0;collapsible=1;marginBottom=0;whiteSpace=wrap;html=1;rounded=0;shadow=0;glass=1;sketch=0;fontSize=16;fillColor=#FFFFFF;" vertex="1" parent="8BmL1JRRTXiNpXpdPoc--181">
          <mxGeometry x="15.5" y="40" width="129" height="150" as="geometry">
            <mxRectangle x="21" y="40" width="110" height="30" as="alternateBounds" />
          </mxGeometry>
        </mxCell>
        <mxCell id="8BmL1JRRTXiNpXpdPoc--183" value="cpu: 8cores&amp;nbsp;" style="text;strokeColor=none;fillColor=none;align=left;verticalAlign=middle;spacingLeft=4;spacingRight=4;overflow=hidden;points=[[0,0.5],[1,0.5]];portConstraint=eastwest;rotatable=0;whiteSpace=wrap;html=1;fontSize=16;" vertex="1" parent="8BmL1JRRTXiNpXpdPoc--182">
          <mxGeometry y="30" width="129" height="30" as="geometry" />
        </mxCell>
        <mxCell id="8BmL1JRRTXiNpXpdPoc--184" value="memory: 64G&amp;nbsp;" style="text;strokeColor=none;fillColor=none;align=left;verticalAlign=middle;spacingLeft=4;spacingRight=4;overflow=hidden;points=[[0,0.5],[1,0.5]];portConstraint=eastwest;rotatable=0;whiteSpace=wrap;html=1;fontSize=16;" vertex="1" parent="8BmL1JRRTXiNpXpdPoc--182">
          <mxGeometry y="60" width="129" height="30" as="geometry" />
        </mxCell>
        <mxCell id="8BmL1JRRTXiNpXpdPoc--185" value="hard disk: 1T" style="text;strokeColor=none;fillColor=none;align=left;verticalAlign=middle;spacingLeft=4;spacingRight=4;overflow=hidden;points=[[0,0.5],[1,0.5]];portConstraint=eastwest;rotatable=0;whiteSpace=wrap;html=1;fontSize=16;" vertex="1" parent="8BmL1JRRTXiNpXpdPoc--182">
          <mxGeometry y="90" width="129" height="30" as="geometry" />
        </mxCell>
        <mxCell id="8BmL1JRRTXiNpXpdPoc--186" value="ip：10.4.10.56" style="text;strokeColor=none;fillColor=none;align=left;verticalAlign=middle;spacingLeft=4;spacingRight=4;overflow=hidden;points=[[0,0.5],[1,0.5]];portConstraint=eastwest;rotatable=0;whiteSpace=wrap;html=1;fontSize=16;" vertex="1" parent="8BmL1JRRTXiNpXpdPoc--182">
          <mxGeometry y="120" width="129" height="30" as="geometry" />
        </mxCell>
      </root>
    </mxGraphModel>
  </diagram>
</mxfile>
